<svg xmlns="http://www.w3.org/2000/svg" width="20" height="20" viewBox="0 0 20 20">
  <g id="vuesax_linear_search-normal" data-name="vuesax/linear/search-normal" transform="translate(-428 -188)">
    <g id="search-normal" transform="translate(428 188)">
      <path id="Union_22" data-name="Union 22" d="M-1599.114-50.053l-1.667-1.667a.751.751,0,0,1,0-1.061.751.751,0,0,1,1.061,0l1.667,1.667a.751.751,0,0,1,0,1.061.751.751,0,0,1-.531.22A.751.751,0,0,1-1599.114-50.053ZM-1616-59.333A8.677,8.677,0,0,1-1607.333-68a8.677,8.677,0,0,1,8.667,8.667,8.677,8.677,0,0,1-8.667,8.667A8.677,8.677,0,0,1-1616-59.333Zm1.5,0a7.175,7.175,0,0,0,7.167,7.167,7.175,7.175,0,0,0,7.167-7.167,7.175,7.175,0,0,0-7.167-7.167A7.175,7.175,0,0,0-1614.5-59.333Z" transform="translate(1616.917 68.917)" fill="#1a4d38"/>
      <path id="Vector" d="M0,0H20V20H0Z" fill="none" opacity="0"/>
    </g>
  </g>
</svg>
